<svg width="512" height="512" viewBox="0 0 512 512" fill="none" xmlns="http://www.w3.org/2000/svg">
  <rect width="512" height="512" rx="128" fill="#0F172A"/>
  <rect x="80" y="96" width="352" height="320" rx="48" fill="#F8F2EA"/>
  <path d="M160 336C160 294.026 194.026 260 236 260H352V300C352 341.974 317.974 376 276 376H160V336Z" fill="#EF7D29"/>
  <path d="M160 232C160 190.026 194.026 156 236 156H352V196C352 237.974 317.974 272 276 272H160V232Z" fill="#12836B"/>
  <circle cx="208" cy="214" r="26" fill="#0F172A"/>
  <path d="M212.616 341.84V321.392C224.008 320.112 232.84 312.56 232.84 302.448C232.84 291.504 224.84 284.72 211.592 281.648L203.528 279.792C196.04 278.064 192.648 275.184 192.648 270.256C192.648 264.688 197.704 260.784 205.512 260.784C213.256 260.784 218.248 264.496 220.168 271.024H232.456C230.792 259.184 223.176 251.184 212.616 249.968V230.096H201.608V249.84C189.832 250.928 181.128 258.224 181.128 269.36C181.128 279.728 187.784 286.256 200.52 289.264L208.648 291.184C216.904 293.104 221.256 296.496 221.256 302.32C221.256 308.4 215.304 312.496 206.856 312.496C197.768 312.496 191.816 308.144 189.832 301.04H177.224C179.528 313.968 188.296 321.712 201.608 322.8V341.84H212.616Z" fill="#F8F2EA"/>
</svg>
